<svg width="110" height="110" viewBox="0 0 110 110" fill="none" xmlns="http://www.w3.org/2000/svg">
<path d="M98.2143 0H11.7857C5.27902 0 0 5.27902 0 11.7857V98.2143C0 104.721 5.27902 110 11.7857 110H98.2143C104.721 110 110 104.721 110 98.2143V11.7857C110 5.27902 104.721 0 98.2143 0ZM90.3571 61.875C90.3571 63.4955 89.0313 64.8214 87.4107 64.8214H64.8214V87.4107C64.8214 89.0313 63.4955 90.3571 61.875 90.3571H48.125C46.5045 90.3571 45.1786 89.0313 45.1786 87.4107V64.8214H22.5893C20.9688 64.8214 19.6429 63.4955 19.6429 61.875V48.125C19.6429 46.5045 20.9688 45.1786 22.5893 45.1786H45.1786V22.5893C45.1786 20.9688 46.5045 19.6429 48.125 19.6429H61.875C63.4955 19.6429 64.8214 20.9688 64.8214 22.5893V45.1786H87.4107C89.0313 45.1786 90.3571 46.5045 90.3571 48.125V61.875Z" fill="#F2F2F2"/>
</svg>
