<svg width="110" height="97" viewBox="0 0 110 97" fill="none" xmlns="http://www.w3.org/2000/svg">
<path d="M99.6875 0H10.3125C4.61914 0 0 4.61914 0 10.3125V85.9375C0 91.6309 4.61914 96.25 10.3125 96.25H99.6875C105.381 96.25 110 91.6309 110 85.9375V10.3125C110 4.61914 105.381 0 99.6875 0ZM81.7266 62.4121C82.7578 63.4434 82.7578 65.1191 81.7266 66.1504L73.0254 74.8516C71.9941 75.8828 70.3184 75.8828 69.2871 74.8516L55 60.4355L40.7129 74.8516C39.6816 75.8828 38.0059 75.8828 36.9746 74.8516L28.2734 66.1504C27.2422 65.1191 27.2422 63.4434 28.2734 62.4121L42.6895 48.125L28.2734 33.8379C27.2422 32.8066 27.2422 31.1309 28.2734 30.0996L36.9746 21.3984C38.0059 20.3672 39.6816 20.3672 40.7129 21.3984L55 35.8144L69.2871 21.3984C70.3184 20.3672 71.9941 20.3672 73.0254 21.3984L81.7266 30.0996C82.7578 31.1309 82.7578 32.8066 81.7266 33.8379L67.3105 48.125L81.7266 62.4121Z" fill="#F2F2F2"/>
</svg>
