<svg width="97" height="110" viewBox="0 0 97 110" fill="none" xmlns="http://www.w3.org/2000/svg">
<path d="M6.875 99.6875C6.875 102.423 7.96149 105.046 9.89546 106.98C11.8294 108.914 14.4524 110 17.1875 110H79.0625C81.7975 110 84.4205 108.914 86.3545 106.98C88.2885 105.046 89.375 102.423 89.375 99.6875V27.5H6.875V99.6875ZM65.3125 44.6875C65.3125 43.7758 65.6746 42.9015 66.3193 42.2568C66.9639 41.6122 67.8383 41.25 68.75 41.25C69.6617 41.25 70.536 41.6122 71.1807 42.2568C71.8253 42.9015 72.1875 43.7758 72.1875 44.6875V92.8125C72.1875 93.7242 71.8253 94.5985 71.1807 95.2432C70.536 95.8878 69.6617 96.25 68.75 96.25C67.8383 96.25 66.9639 95.8878 66.3193 95.2432C65.6746 94.5985 65.3125 93.7242 65.3125 92.8125V44.6875ZM44.6875 44.6875C44.6875 43.7758 45.0496 42.9015 45.6943 42.2568C46.339 41.6122 47.2133 41.25 48.125 41.25C49.0367 41.25 49.911 41.6122 50.5557 42.2568C51.2003 42.9015 51.5625 43.7758 51.5625 44.6875V92.8125C51.5625 93.7242 51.2003 94.5985 50.5557 95.2432C49.911 95.8878 49.0367 96.25 48.125 96.25C47.2133 96.25 46.339 95.8878 45.6943 95.2432C45.0496 94.5985 44.6875 93.7242 44.6875 92.8125V44.6875ZM24.0625 44.6875C24.0625 43.7758 24.4247 42.9015 25.0693 42.2568C25.714 41.6122 26.5883 41.25 27.5 41.25C28.4117 41.25 29.286 41.6122 29.9307 42.2568C30.5753 42.9015 30.9375 43.7758 30.9375 44.6875V92.8125C30.9375 93.7242 30.5753 94.5985 29.9307 95.2432C29.286 95.8878 28.4117 96.25 27.5 96.25C26.5883 96.25 25.714 95.8878 25.0693 95.2432C24.4247 94.5985 24.0625 93.7242 24.0625 92.8125V44.6875ZM92.8125 6.87504H67.0312L65.0117 2.85746C64.5839 1.99854 63.9249 1.27604 63.1089 0.771237C62.2928 0.266431 61.3521 -0.000650539 60.3926 3.76679e-05H35.8359C34.8785 -0.00364272 33.9395 0.262443 33.1263 0.767811C32.3132 1.27318 31.6588 1.99738 31.2383 2.85746L29.2187 6.87504H3.4375C2.52582 6.87504 1.65148 7.2372 1.00682 7.88186C0.362164 8.52651 0 9.40085 0 10.3125L0 17.1875C0 18.0992 0.362164 18.9736 1.00682 19.6182C1.65148 20.2629 2.52582 20.625 3.4375 20.625H92.8125C93.7241 20.625 94.5985 20.2629 95.2431 19.6182C95.8878 18.9736 96.25 18.0992 96.25 17.1875V10.3125C96.25 9.40085 95.8878 8.52651 95.2431 7.88186C94.5985 7.2372 93.7241 6.87504 92.8125 6.87504Z" fill="#2E3236"/>
</svg>
