<svg width="210" height="112" viewBox="0 0 210 112" fill="none" xmlns="http://www.w3.org/2000/svg">
<g clip-path="url(#clip0_25_737)">
<path d="M209.8 111.8C205.467 111.8 201.4 111.8 197.4 111.8C199.533 58.7267 158.467 16.0949 108.333 14.6317C81.4668 13.8336 58.2668 23.0118 39.2668 42.2327C20.2668 61.4536 12.0668 84.8645 12.7335 112C8.93346 112 5.2668 112.133 1.6668 111.867C1.00013 111.8 0.000128858 110.071 -0.0665378 109.074C-0.266538 92.1804 2.80013 76.0189 10.4668 60.855C27.5335 27.2018 55.0668 7.64834 92.3335 2.59371C142.467 -4.25665 190.267 27.2018 205.333 76.0189C208.933 87.5248 210.533 99.2968 209.8 111.8Z" fill="#F2F2F2"/>
<path d="M50.1333 112C55.4 98.2992 61.3333 85.5962 68.7333 73.6247C71.5333 69.1021 74.6666 64.8456 77.9333 60.589C79.3333 58.7933 81.3333 57.4631 83.0666 55.8669C83.4666 56.0665 83.8 56.266 84.2 56.4655C84.2 59.1259 84.5333 61.8527 84.1333 64.513C81.6666 80.5415 76.0666 95.5059 69.4666 110.204C69.1333 111.002 67.8666 111.867 67.0666 111.933C61.6 112.066 56.2 112 50.1333 112Z" fill="#F2F2F2"/>
<path d="M89.9331 112C92.9331 105.615 95.2664 99.7625 98.3998 94.3753C103.333 85.7958 108.733 77.4157 114.266 69.1022C115.533 67.1735 118.133 66.1758 120.133 64.7126C120.466 67.1069 121.4 69.5678 121.066 71.8955C119.2 85.2637 114.733 97.9003 109.666 110.271C109.333 111.069 108.066 111.867 107.2 111.934C101.8 112.067 96.3998 112 89.9331 112Z" fill="#F2F2F2"/>
<path d="M130.467 112C135.067 102.622 139.667 94.0428 147.133 87.4585C148.2 86.5274 149.8 86.2613 151.2 85.7292C151.733 87.1259 152.933 88.5226 152.733 89.7863C151.733 96.7696 150.4 103.687 149 110.603C148.867 111.135 147.733 111.867 147.067 111.934C141.8 112.067 136.533 112 130.467 112Z" fill="#F2F2F2"/>
</g>
<defs>
<clipPath id="clip0_25_737">
<rect width="210" height="112" fill="white"/>
</clipPath>
</defs>
</svg>
