<?xml version="1.0" encoding="utf-8"?>
<!-- Generator: Adobe Illustrator 27.3.1, SVG Export Plug-In . SVG Version: 6.00 Build 0)  -->
<svg version="1.1" id="Calque_1" xmlns="http://www.w3.org/2000/svg" xmlns:xlink="http://www.w3.org/1999/xlink" x="0px" y="0px"
	 viewBox="0 0 315 168.4" style="enable-background:new 0 0 315 168.4;" xml:space="preserve">
<path d="M314.7,168.1c-6.5,0-12.6,0-18.6,0C299.3,88.3,237.7,24.2,162.5,22c-40.3-1.2-75.1,12.6-103.6,41.5
	c-28.5,28.9-40.8,64.1-39.8,104.9c-5.7,0-11.2,0.2-16.6-0.2c-1-0.1-2.5-2.7-2.6-4.2c-0.3-25.4,4.3-49.7,15.8-72.5
	c25.6-50.6,66.9-80,122.8-87.6c75.2-10.3,146.9,37,169.5,110.4C313.4,131.6,315.8,149.3,314.7,168.1z"/>
<path d="M75.2,168.4c7.9-20.6,16.8-39.7,27.9-57.7c4.2-6.8,8.9-13.2,13.8-19.6c2.1-2.7,5.1-4.7,7.7-7.1c0.6,0.3,1.1,0.6,1.7,0.9
	c0,4,0.5,8.1-0.1,12.1c-3.7,24.1-12.1,46.6-22,68.7c-0.5,1.2-2.4,2.5-3.6,2.6C92.4,168.5,84.3,168.4,75.2,168.4z"/>
<path d="M134.9,168.4c4.5-9.6,8-18.4,12.7-26.5c7.4-12.9,15.5-25.5,23.8-38c1.9-2.9,5.8-4.4,8.8-6.6c0.5,3.6,1.9,7.3,1.4,10.8
	c-2.8,20.1-9.5,39.1-17.1,57.7c-0.5,1.2-2.4,2.4-3.7,2.5C152.7,168.5,144.6,168.4,134.9,168.4z"/>
<path d="M195.7,168.4c6.9-14.1,13.8-27,25-36.9c1.6-1.4,4-1.8,6.1-2.6c0.8,2.1,2.6,4.2,2.3,6.1c-1.5,10.5-3.5,20.9-5.6,31.3
	c-0.2,0.8-1.9,1.9-2.9,2C212.7,168.5,204.8,168.4,195.7,168.4z"/>
</svg>
