<?xml version="1.0" encoding="utf-8"?>
<!-- Generator: Adobe Illustrator 27.3.1, SVG Export Plug-In . SVG Version: 6.00 Build 0)  -->
<svg version="1.1" id="Calque_1" xmlns="http://www.w3.org/2000/svg" xmlns:xlink="http://www.w3.org/1999/xlink" x="0px" y="0px"
	 viewBox="0 0 220.3 301.8" style="enable-background:new 0 0 220.3 301.8;" xml:space="preserve">
<path d="M6.8,46.2c68.7,0,137.4,0,206.1,0c0.3,0.8,0.3,182.8,0.1,184.5c-68.7,0-137.4,0-206.2,0C6.8,169.2,6.8,107.8,6.8,46.2z
	 M104.6,220.4c0-0.6,0-1.1,0-1.6c0-32,0-64.1,0-96.1c0-0.6,0.1-1.2,0.1-1.8c0.1-2.4-0.1-4.7-0.7-7c-1.4-4.8-4.5-7.8-9.5-8.8
	c-3.3-0.6-6.5,0.1-9.6,1.3c-3.8,1.6-7.3,3.8-10.6,6.3C68.6,117,63.6,122,59,127.3c-5.4,6.2-10.4,12.9-14.8,19.9
	c-6.3,10.1-11.5,20.7-15.4,32c-3.8,11-6.2,22.3-6.9,33.9c-0.1,1.2-0.2,2.3-0.2,3.5c0,1.2,0,2.4,0,3.6c4.9,0,9.7,0,14.6,0
	c0.1-9.3,1.2-18.3,3.6-27.2c16.8,0,33.4,0,50.2,0c0,1.6,0,3.1,0,4.6c0,1.5,0,3,0,4.6c0,1.5,0,3,0,4.6c0,1.6,0,3.1,0,4.7
	c0,1.5,0,3,0,4.6c0,1.5,0,3,0,4.5C95,220.4,99.7,220.4,104.6,220.4z M115,104.9c0,38.6,0,76.9,0,115.4c0.6,0,1,0,1.5,0
	c7.9,0,15.8,0,23.6,0c3.2,0,6.3-0.2,9.4-0.6c5.5-0.8,10.7-2.3,15.5-5c4-2.2,7.3-5.1,9.9-8.9c4.6-6.8,5.9-14.4,4.7-22.3
	c-1.1-7.3-4.3-13.6-9.8-18.6c-3.2-2.9-6.9-4.9-11.1-5.9c-0.3-0.1-0.7-0.2-1.2-0.3c0.6-0.4,1-0.6,1.3-0.9c1.2-0.9,2.5-1.7,3.5-2.8
	c3.8-4.1,6-8.9,6.8-14.4c0.7-5,0.3-10-1.1-14.8c-1.9-6.6-5.8-11.7-11.8-15.1c-3.6-2.1-7.6-3.4-11.6-4.2c-5.3-1.1-10.7-1.4-16.2-1.5
	c-4,0-8.1,0-12.1,0C115.9,104.9,115.5,104.9,115,104.9z M156.9,97.6c0-0.7,0-1.1,0.1-1.6c0.5-3.3,0.5-6.7,0.1-10
	c-0.9-7.1-3.3-13.5-7.3-19.4c-3.5-5-7.8-9.1-13.4-11.7c-0.4-0.2-0.8-0.3-1.3-0.5c-0.6,1.2-1.2,2.2-1.7,3.3
	c-2.3,5.2-2.9,10.7-2.4,16.3c0.4,5.2,1.8,10,4.3,14.6c3.4,6.4,8.4,11.1,15.2,13.8c4.8,2,9.9,2.7,15.1,2.4c4.5-0.2,8.8-1.4,12.8-3.5
	c4.1-2,7.6-4.8,10.7-8.1c2.2-2.3,4-4.9,5.3-7.8c0.4-0.9,0.8-1.8,0.8-2.9c-0.2-0.1-0.3-0.1-0.5-0.2c-3.8-0.8-7.7-0.9-11.5-0.2
	c-9.2,1.7-17.1,6-23.8,12.5C158.6,95.6,157.8,96.5,156.9,97.6z"/>
<path d="M212.6,5.9c0,1.5,0,2.9,0,4.4c0,0.2,0,0.5-0.1,0.8C144,11,75.5,11,7,11c0-1.7,0-3.4,0-5.1C75.5,5.9,144,5.9,212.6,5.9z"/>
<path d="M6.9,297.9c0-1.3,0-2.6,0-3.9c0,0,0.1-0.1,0.1-0.1c0,0,0.1-0.1,0.1-0.1c68.5,0,137,0,205.4-0.1c0.2,0,0.5,0,0.8,0
	c0,1.3,0,2.6,0,4C144.5,297.9,75.7,297.9,6.9,297.9z"/>
<path d="M21.8,279.2c0.6,1.1,1.4,2,1.7,3c1.1,3.4-1,6.6-4.6,6.9c-2.6,0.2-5.2,0.1-7.8,0.2c-0.7,0-1.5,0-2.3,0c0-6.2,0-12.3,0-18.5
	c0.3,0,0.5-0.1,0.8-0.1c2.3,0,4.6-0.1,7,0c1.2,0.1,2.5,0.2,3.6,0.7c3.2,1.2,4.1,4.7,2,7.4C22,278.9,21.8,279.1,21.8,279.2z
	 M12.6,286.1c1.5,0,2.9,0,4.2,0c0.6,0,1.1-0.1,1.6-0.2c0.6-0.1,1.1-0.5,1.4-1.1c0.9-2-0.1-3.6-2.3-3.7c-1.4,0-2.9,0-4.3,0
	c-0.2,0-0.4,0.1-0.7,0.1C12.6,282.9,12.6,284.5,12.6,286.1z M12.6,278c1.8,0,3.5,0,5.2,0c0.1,0,0.2,0,0.4-0.1c1-0.3,1.5-1,1.5-2.1
	c0-1-0.6-1.7-1.6-2c-0.5-0.1-1-0.2-1.5-0.2c-1.3,0-2.6,0-4,0C12.6,275.2,12.6,276.5,12.6,278z"/>
<path d="M167,286.5c0.7,0.7,1.2,1.3,1.9,2c-0.6,0.7-1.2,1.3-1.9,2.1c-0.8-0.7-1.5-1.3-2.2-2c-1.6,0.8-3.3,1.2-5.1,1.2
	c-4.4-0.1-7.1-2.3-8.3-6.1c-1.2-3.7-0.7-7.1,1.6-10.3c1-1.3,2.3-2.1,3.8-2.5c2.7-0.7,5.3-0.7,7.8,0.7c2.4,1.3,3.6,3.6,4.1,6.2
	C169.4,280.8,168.7,283.8,167,286.5z M164.3,284.1c1.3-2.9,1.4-5.6-0.1-8.2c-1.8-3-6.7-3.1-8.5-0.1c-1.6,2.7-1.6,5.6,0,8.4
	c0.8,1.5,2.3,2.1,3.9,2.2c0.8,0,1.7,0.1,2.6-0.6c-0.7-0.5-1.3-1-2.2-1.7c0.9-0.7,1.6-1.3,2.4-1.9
	C162.8,282.8,163.5,283.4,164.3,284.1z"/>
<path d="M51.2,239.9c0.4,0,0.7,0,1,0c2.9,0,5.8,0,8.6,0c0.2,0,0.3,0,0.5,0c3.9,0.2,6,3.6,4.6,7.2c-0.4,1-1.2,1.8-2.3,2.4
	c0.3,0.3,0.6,0.5,0.8,0.7c0.7,0.5,1.1,1.2,1.1,2c0.1,1.2,0.1,2.3,0.2,3.5c0,0.8,0,1.5,0.6,2.1c0.1,0.1,0.1,0.4,0.1,0.6
	c-1.4,0-2.7,0-4.1,0c-0.1-0.4-0.4-0.7-0.4-1.2c-0.1-1,0-2.1,0-3.1c0-0.4,0-0.8,0-1.2c-0.2-1.1-0.8-1.7-1.9-1.8c-1.6,0-3.2,0-5,0
	c-0.1,1.2,0,2.4,0,3.6c0,1.2,0,2.4,0,3.6c-1.3,0-2.5,0-3.8,0C51.2,252.2,51.2,246.1,51.2,239.9z M55,247.9c1.8,0,3.5,0,5.3,0
	c0.3,0,0.5-0.1,0.8-0.2c1-0.4,1.7-1.7,1.5-2.8c-0.2-1.2-0.8-1.8-2.1-1.8c-1.5-0.1-3-0.1-4.5-0.1c-0.3,0-0.6,0.1-0.9,0.1
	C55,244.7,55,246.3,55,247.9z"/>
<path d="M191.3,249.5c0.8,0.6,1.6,1.1,1.8,2.1c0.1,0.7,0.2,1.5,0.2,2.3c0,0.5,0,1,0,1.6c0,0.8,0,1.6,0.6,2.2
	c0.1,0.1,0.1,0.3,0.1,0.6c-0.7,0-1.4,0-2,0.1c-0.7,0-1.3,0-2.2,0c-0.1-0.7-0.3-1.3-0.3-1.9c-0.1-1,0-2,0-3c0-1.7-0.7-2.4-2.4-2.4
	c-1.5,0-2.9,0-4.5,0c0,2.4,0,4.8,0,7.2c-1.3,0-2.5,0-3.7,0c-0.2-0.8-0.3-16.8-0.1-18.4c0.3,0,0.7-0.1,1-0.1c2.9,0,5.8,0,8.6,0
	c0.1,0,0.2,0,0.4,0c4.1,0.1,6.4,4.3,4.3,7.9C192.7,248.4,192,248.9,191.3,249.5z M182.6,248c1.7,0,3.4,0,5,0c0.3,0,0.6-0.1,0.9-0.2
	c1.2-0.4,1.9-1.6,1.7-2.8c-0.2-1.2-0.8-1.8-2.2-1.9c-1.8-0.1-3.6,0-5.4,0C182.6,244.6,182.6,246.2,182.6,248z"/>
<path d="M130.9,289.2c-0.7,0-1.3,0-2.1,0c-0.2-0.7-0.4-1.3-0.6-2.1c-0.2,0.2-0.5,0.3-0.6,0.5c-1.8,2.1-4.2,2.4-6.7,2.1
	c-3.5-0.4-6.2-3.4-7-6.9c-0.6-2.8-0.4-5.5,1-8c1.6-2.9,4-4.4,7.3-4.4c1,0,2,0,3,0.2c2.6,0.4,4.3,2,5.4,4.3c0.2,0.4,0.3,1,0.4,1.6
	c-1.2,0-2.3,0-3.4,0c-0.1-0.1-0.2-0.2-0.3-0.4c-0.9-1.9-2.5-2.6-4.4-2.6c-1.9,0-3.6,0.7-4.6,2.5c-1.2,2.1-1.6,6.3,0.6,8.8
	c1.3,1.5,2.9,2.2,4.9,1.8c1.9-0.4,3.2-1.5,3.8-3.4c0-0.1,0.1-0.2,0.1-0.4c0-0.1,0-0.2-0.1-0.5c-1.3,0-2.7,0-4.1,0c0-1.1,0-2,0-3
	c2.4,0,4.8,0,7.1,0C131.1,280.1,131.2,287,130.9,289.2z"/>
<path d="M44.9,245.6c-1.2,0-2.3,0-3.2,0c-0.7-0.8-1.3-1.7-2-2.2c-2.3-1.5-6.7-1.2-7.9,2.8c-0.7,2.5-0.8,5,0.7,7.2
	c2.7,3.9,7.1,2.6,8.6-0.1c0.3-0.5,0.4-1.1,0.7-1.8c-1.6,0-2.9,0-4.3,0c-0.2-1.1-0.1-2-0.1-3.1c2.5,0,4.9,0,7.4,0c0,3.3,0,6.5,0,9.8
	c-0.7,0-1.4,0-2.2,0c-0.2-0.6-0.3-1.3-0.5-2.1c-0.4,0.3-0.6,0.6-0.9,0.9c-1.5,1.5-3.4,2-5.5,1.8c-0.6-0.1-1.1-0.1-1.7-0.2
	c-2.4-0.5-4-2.1-5.1-4c-2-3.4-1.9-8.6,0.7-12c1.6-2,3.6-3.1,6.2-3.1c1.3,0,2.6,0,3.8,0.3c2.6,0.6,4.2,2.3,5.1,4.8
	C44.8,245,44.8,245.2,44.9,245.6z"/>
<path d="M97.9,289.8c-0.6-0.1-1.2-0.1-1.8-0.2c-3.8-0.5-5.9-2.8-6.9-6.3c-0.9-2.9-0.6-5.7,0.7-8.4c1.4-2.9,3.8-4.3,7-4.5
	c1.3-0.1,2.5,0,3.8,0.3c2.3,0.6,4,2,5,4.1c1.4,2.8,1.6,5.6,0.7,8.6C105.3,287.1,102.8,289.8,97.9,289.8z M103.2,279.8
	c0-1.1-0.3-2.3-0.9-3.6c-1.6-3.4-6.9-3.6-8.8-0.5c-1.6,2.7-1.6,5.5-0.1,8.3c1,1.8,2.8,2.5,4.8,2.3c1.9-0.1,3.3-1,4.2-2.8
	C103,282.5,103.2,281.4,103.2,279.8z"/>
<path d="M61.2,280c0.1,2.3-0.5,4.3-1.7,6.2c-1,1.5-2.3,2.5-4,3.1c-2.1,0.6-4.2,0.7-6.2,0.1c-2.3-0.6-3.9-2-4.9-4.1
	c-2-4.3-1.8-8.4,1.2-12.3c0.8-1,1.8-1.6,2.9-2c2.2-0.8,4.5-0.9,6.8-0.2c2.1,0.6,3.6,1.9,4.7,3.9C60.9,276.4,61.4,278.1,61.2,280z
	 M46.8,280.5c0.1,0.6,0.2,1.5,0.5,2.4c0.6,1.8,1.8,3,3.7,3.4c2.1,0.4,4.5-0.1,5.7-2.5c1.2-2.5,1.3-5.1,0-7.6
	c-0.9-1.9-2.6-2.7-4.6-2.6c-2,0.1-3.6,0.9-4.5,2.8C47,277.6,46.8,278.9,46.8,280.5z"/>
<path d="M203.5,242.9c0,1.5,0,2.9,0,4.3c3,0,5.9,0,9,0c0,1.1,0,2,0,3c-1,0.3-2,0.1-2.9,0.1c-1,0-2,0-3,0c-1,0-2,0-3,0
	c0,1.7,0,3.2,0,4.9c3.4,0,6.7,0,10.2,0c0,1.1,0,2,0,2.9c-0.8,0.2-12.3,0.3-14,0.1c0-6.1,0-12.2,0-18.4c4.5,0,9,0,13.5,0
	c0,1,0,1.9,0,3C209.9,242.9,206.8,242.9,203.5,242.9z"/>
<path d="M204.2,278.1c3,0,5.9,0,8.8,0c0,1.1,0,2,0,3.1c-2.9,0-5.8,0-8.8,0c0,1.7,0,3.3,0,5c3.3,0,6.6,0,10,0c0,1.1,0,2,0,2.9
	c-0.8,0.2-11.5,0.3-13.7,0.1c-0.3-0.8-0.3-16.5-0.1-18.5c4.4,0,8.9,0,13.4,0c0.2,0.9,0.1,1.9,0.1,3c-3.2,0-6.4,0-9.7,0
	C204.1,275.2,204.1,276.6,204.2,278.1z"/>
<path d="M191.5,270.8c0,0.4,0,0.8,0,1.3c0,3.8-0.1,7.5,0,11.3c0.1,3.3-2.1,5.5-5,6.2c-1.7,0.4-3.4,0.3-5.1-0.1
	c-2.8-0.7-4.8-3.2-4.8-6.1c0-3.9,0-7.8,0-11.8c0-0.2,0-0.5,0-0.7c0.8-0.3,2.2-0.3,3.8-0.1c0,0.4,0,0.8,0,1.2c0,3.7,0,7.4,0,11.2
	c0,2.2,1.2,3.3,3.2,3.3c0.5,0,1,0,1.4,0c1.7-0.2,2.6-1.2,2.6-2.9c0-3.8,0-7.6,0-11.4c0-0.4,0-0.9,0-1.3
	C188.6,270.6,190.2,270.5,191.5,270.8z"/>
<path d="M168.6,239.9c1.4,0,2.5,0,3.8,0c0,0.5,0,0.9,0,1.3c0,3.8,0,7.7,0,11.5c0,2.7-1.2,4.5-3.6,5.5c-2.4,1-4.8,1.1-7.2,0.2
	c-2.2-0.8-4.1-3.1-4.1-5.8c0.1-3.8,0-7.6,0-11.4c0-0.4,0-0.8,0-1.3c1.3,0,2.5,0,3.8,0c0,0.5,0,0.9,0,1.3c0,3.7,0.1,7.4,0,11
	c0,2.1,1,3.4,3.4,3.4c0.6,0,1.3-0.1,1.9-0.2c1.3-0.4,2-1.3,2-2.7c0-3.8,0-7.7,0-11.5C168.6,240.8,168.6,240.4,168.6,239.9z"/>
<path d="M102.3,239.9c1.3,0,2.5,0,3.8,0c0,0.5,0,0.9,0,1.3c0,3.5,0,7,0,10.4c0,0.3,0,0.6,0,0.8c0.1,2,1.2,3.1,3.2,3.2
	c0.2,0,0.5,0,0.7,0c2.4,0,3.5-1.5,3.5-3.5c-0.1-3.7,0-7.4,0-11c0-0.4,0-0.8,0-1.3c1.3,0,2.5,0,3.8,0c0,0.4,0,0.8,0,1.1
	c0,3.8,0,7.5,0,11.3c0,3.8-2.3,5.9-5.6,6.5c-1.3,0.2-2.5,0.2-3.8,0c-2.8-0.4-5.8-3-5.7-6.7c0.1-3.6,0-7.3,0-10.9
	C102.3,240.8,102.3,240.4,102.3,239.9z"/>
<path d="M12.8,239.9c1.5,0,3,0,4.5,0c2.1,6.1,4.3,12.2,6.4,18.4c-1.4,0-2.6,0-3.9,0c-0.4-1.2-0.8-2.4-1.3-3.5c-2.4,0-4.7,0-7.1,0
	c-0.4,1.2-0.9,2.3-1.3,3.5c-1.3,0-2.5,0-3.9,0C8.4,252.1,10.6,246,12.8,239.9z M17.6,251.5c-0.9-2.5-1.7-4.7-2.5-7
	c-0.1,0-0.2,0-0.2,0c-0.7,2.3-1.5,4.6-2.2,6.9C14.4,251.5,15.9,251.5,17.6,251.5z"/>
<path d="M80.9,32.7c1.9,1,1.6,2.8,1.8,4.5c0.1,0.6,0,1.2,0,1.8c0,0.7,0,1.4,0.5,2.1c0.1,0.1,0,0.4,0.1,0.6c-1.1,0-2.2,0-3.3,0
	c-0.5-0.9-0.5-1.9-0.5-2.8c0-0.8,0-1.6,0.1-2.4c0.1-1.3-0.6-2.1-1.9-2.3c-0.2,0-0.5,0-0.7,0c-1,0-1.9,0-3,0c-0.1,2.5,0,4.9-0.1,7.5
	c-1,0-2,0-3,0c0-6.3,0-12.5,0-18.8c0.4,0,0.7-0.1,1-0.1c2.3,0,4.6,0,6.8,0c2.6,0,4,1.3,4.4,3.8c0.1,0.6,0.2,1.3,0.1,1.9
	C82.9,30.7,82.8,30.8,80.9,32.7z M73.9,31c1.3,0,2.5,0,3.8,0c1,0,1.8-0.4,2.2-1.4c0.5-1,0.5-2.1-0.2-3.1c-0.3-0.5-0.9-0.6-1.5-0.6
	c-1,0-2,0-3,0c-0.4,0-0.8,0-1.3,0C73.9,27.7,73.9,29.3,73.9,31z"/>
<path d="M93.5,252.1c1.2,0,2.4,0,3.5,0c-0.2,3.1-1.8,5.2-4.7,6.2c-1.9,0.6-3.8,0.9-5.7,0.4c-2.9-0.7-4.7-2.7-5.5-5.5
	c-1-3.2-0.9-6.4,0.7-9.5c1.1-2.1,2.7-3.4,5-3.9c2.5-0.5,4.9-0.4,7.2,1c1.8,1.2,3.1,2.7,3.1,5.1c-1.2,0.3-2.3,0-3.4,0.1
	c-0.1-0.1-0.2-0.2-0.2-0.3c-0.7-2.1-1.9-3-3.8-3.1c-2.2-0.1-3.9,0.7-4.6,2.7c-1.1,2.8-1.3,5.7,0.4,8.4c1,1.6,2.6,2.2,4.4,1.9
	c1.8-0.3,3.1-1.2,3.5-3.1C93.4,252.4,93.4,252.3,93.5,252.1z"/>
<path d="M199.2,41.6c0-6.3,0-12.5,0-18.8c3.7,0,7.3,0,11,0c0,1,0,2,0,3.1c-2.6,0-5.2,0-7.8,0c0,1.5,0,2.9,0,4.5c2.4,0,4.8,0,7.2,0
	c0,1.1,0,2,0,3.1c-2.4,0.1-4.8,0-7.3,0c0,1.7,0,3.2,0,4.9c1.4,0.1,2.8,0,4.1,0c1.3,0,2.7,0,4.1,0c0,1.1,0,2.1,0,3.1
	C206.7,41.6,203,41.6,199.2,41.6z"/>
<path d="M44.7,25.9c0,1.6,0,2.9,0,4.4c2.4,0,4.8,0,7.3,0c0,1.1,0,2,0,3.1c-2.4,0-4.8,0-7.3,0c0,0.9,0,1.7,0,2.5c0,0.8,0,1.6,0,2.5
	c2.8,0,5.5,0,8.3,0c0,1.1,0,2,0,3c-0.8,0.3-9.5,0.4-11.4,0.1c0-6.2,0-12.4,0-18.6c0.8-0.2,8.6-0.3,10.9-0.1c0.3,1,0.1,2,0.1,3.2
	C49.9,25.9,47.4,25.9,44.7,25.9z"/>
<path d="M21,35.2c0.9,0,1.8,0,2.7,0c0.4,2.4-1.2,5.2-3.5,6.3c-4.1,1.8-7.6,0.2-9.1-4c-1.3-3.8-1.3-7.6,0.4-11.3
	c1.2-2.7,3.6-4,6.6-3.8c2.6,0.2,4.8,2.1,5.5,4.7c0.1,0.3,0.2,0.6,0.2,0.9c0,0.3,0,0.5,0,0.9c-0.9,0-1.8,0-2.8,0
	c-0.1-0.3-0.2-0.7-0.3-1c-0.5-1.5-1.6-2.3-3.1-2.4c-1.3-0.1-2.3,0.6-3,1.6c-0.3,0.4-0.5,0.9-0.7,1.4c-0.6,2.3-0.8,4.6-0.1,6.9
	c0.3,0.8,0.8,1.7,1.3,2.4c1.6,2,5,0.7,5.4-1.1C20.6,36.3,20.8,35.8,21,35.2z"/>
<path d="M138,242.9c0-1.1,0-2,0-3c5,0,10,0,15,0c0,1,0,1.9,0,3c-1.8,0-3.5,0-5.4,0c0,5.2,0,10.3,0,15.4c-1.3,0-2.5,0-3.8,0
	c0-5.1,0-10.1,0-15.3C141.7,242.9,139.9,242.9,138,242.9z"/>
<path d="M153.1,33.4c0,2.8,0,5.4,0,8.1c-1.1,0-2,0-2.9,0c-0.2-0.8-0.3-17.3-0.1-18.8c3.5,0,7,0,10.6,0c0,1,0,2,0,3.2
	c-2.5,0-4.9,0-7.5,0c0,1.5,0,2.9,0,4.4c2.2,0,4.3,0,6.6,0c0,1.1,0,2,0,3.1C157.6,33.4,155.5,33.4,153.1,33.4z"/>
<path d="M82,286.1c0,1.1,0,2.1,0,3c-0.9,0.2-11.1,0.3-12.7,0.1c0-6.1,0-12.2,0-18.4c1.2,0,2.4,0,3.7,0c0,1.7,0,3.4,0,5.1
	c0,1.7,0,3.4,0,5c0,1.7,0,3.4,0,5.3C76,286.1,78.9,286.1,82,286.1z"/>
<path d="M123.5,239.9c1.3,0,2.4,0,3.7,0c0,5.1,0,10.2,0,15.3c3.1,0,6,0,9,0c0,1.1,0,2.1,0,3.1c-4.3,0-8.5,0-12.8,0
	C123.5,252.2,123.5,246.1,123.5,239.9z"/>
<path d="M107.5,26c0,5.3,0,10.4,0,15.6c-1.1,0-2,0-3.1,0c0-5.2,0-10.3,0-15.6c-1.6,0-3.2,0-4.8,0c0-1.1,0-2.1,0-3.1
	c0.8-0.3,10.3-0.3,12.2-0.1c0,1,0,2,0,3.2C110.5,26,109.1,26,107.5,26z"/>
<path d="M35.5,289.2c-1.3,0-2.4,0-3.7,0c0-6.2,0-12.3,0-18.5c1.2-0.1,2.4-0.1,3.7,0C35.5,276.9,35.5,283,35.5,289.2z"/>
<path d="M143.2,270.7c0,6.2,0,12.3,0,18.5c-1.2,0.1-2.4,0.1-3.7,0c0-6.2,0-12.3,0-18.5C140.7,270.6,141.9,270.6,143.2,270.7z"/>
<path d="M71.6,239.9c1.2,0,2.4,0,3.5,0c0.3,0.8,0.3,16.8,0.1,18.5c-0.6,0-1.1,0-1.7,0c-0.6,0-1.2,0-1.9,0
	C71.6,252.2,71.6,246.1,71.6,239.9z"/>
<path d="M128.9,22.8c1,0,1.9,0,3,0c0,6.3,0,12.5,0,18.8c-0.9,0.3-1.9,0.1-3,0.1C128.9,35.3,128.9,29.1,128.9,22.8z"/>
<path d="M177.8,22.8c1,0,1.9,0,3,0c0,6.3,0,12.5,0,18.8c-1,0-1.9,0-3,0C177.8,35.3,177.8,29.1,177.8,22.8z"/>
<path d="M204,21.1c0.4-1.1,0.8-2.1,1.2-3.2c0.1-0.4,0.4-0.6,0.8-0.5c0.6,0,1.1,0,1.9,0c-0.2,0.4-0.4,0.7-0.5,1
	c-0.5,0.7-1,1.3-1.4,2.1C205.5,21.2,204.9,21.4,204,21.1z"/>
<path d="M89.9,178.6c-15.1,0-30.2,0-45.4,0c0.1-0.4,0.2-0.8,0.4-1.1c2.1-5.1,4.4-10,7.1-14.8c4.1-7.5,8.9-14.6,14.3-21.3
	c3.4-4.2,7-8.3,11-12c3.4-3.2,6.9-6.2,10.9-8.5c0.5-0.3,1.1-0.6,1.8-0.9C89.9,139.6,89.9,159.1,89.9,178.6z"/>
<path d="M129.1,167.6c0.4,0,0.7,0,1,0c3.7,0,7.4-0.1,11.1,0.1c4.8,0.2,9.5,1.1,13.9,3c3.3,1.5,6.1,3.6,8.1,6.7
	c1.3,2.1,2.1,4.4,2.4,6.8c0.3,3.4,0.2,6.8-0.9,10.1c-1.4,4.3-4.2,7.5-8.2,9.6c-3,1.7-6.4,2.5-9.8,3c-4.6,0.7-9.3,0.5-14,0.5
	c-1.2,0-2.5,0-3.8,0C129.1,194.2,129.1,181,129.1,167.6z"/>
<path d="M129.1,156.1c0-12.8,0-25.4,0-38.1c0.3,0,0.6-0.1,0.9-0.1c2.5,0,5,0,7.5,0.1c3,0.2,5.9,0.7,8.8,1.7c4.9,1.8,8,5.3,9.2,10.3
	c1.1,4.5,1.1,9.1,0,13.6c-1.4,5.5-4.9,9.1-10.3,10.8c-2.9,0.9-6,1.3-9.1,1.4c-1.9,0.1-3.8,0.1-5.7,0.2
	C130,156.1,129.7,156.1,129.1,156.1z"/>
</svg>
