<?xml version="1.0" encoding="utf-8"?>
<!-- Generator: Adobe Illustrator 27.3.1, SVG Export Plug-In . SVG Version: 6.00 Build 0)  -->
<svg version="1.1" id="Calque_1" xmlns="http://www.w3.org/2000/svg" xmlns:xlink="http://www.w3.org/1999/xlink" x="0px" y="0px"
	 viewBox="0 0 246.2 214.9" style="enable-background:new 0 0 246.2 214.9;" xml:space="preserve">
<path d="M41.6,177.3c1,1.1,1.6,1.9,2.3,2.5c24.2,23.2,53,33.2,86.2,29.1c23-2.8,42.7-13.1,59.2-29.5c1.3-1.3,1.8-2.4,1.1-4.4
	c-1.3-3.6,0.3-7.5,3.5-9.7c3-2,7.5-1.7,10.4,0.6c2.8,2.4,3.8,6.3,2.5,9.8s-4.9,6.1-8.7,5.4c-2.6-0.4-3.9,0.5-5.6,2.1
	c-24.1,23.5-53,34.1-86.6,31c-26.9-2.5-49.6-14.1-68.2-33.7c-1.8-1.9-3.4-2.4-6-1.9c-6.7,1.4-13.5,2.5-20.3,3.7
	c-1.8,0.3-3.6,0.3-4-2c-0.3-2.1,1.2-2.7,2.9-3c24.4-4.3,48.7-8.5,73.1-12.8c30.1-5.3,60.3-10.7,90.4-16c15.7-2.8,31.4-5.5,47.1-8.3
	c6.5-1.1,13-2.3,19.4-3.4c0.5-0.1,1-0.2,1.5-0.3c1.8-0.2,3.9-0.8,4.3,1.8c0.5,2.5-1.6,2.9-3.4,3.2c-2.5,0.5-5.1,0.9-7.7,1.4
	c-21,3.7-42,7.4-63,11.1c-17.3,3-34.6,6-51.9,9.1c-25,4.4-50.1,8.8-75.1,13.3C44.1,176.6,43.1,176.9,41.6,177.3z"/>
<path d="M15.1,91.9c1.1,0.5,2,0.9,2.9,1.3c5.2,2.6,7.8,8.4,6.4,14.2c-1.3,5.4-6.5,9.3-12.2,9.2c-5.7-0.1-10.7-4.1-11.9-9.6
	c-1.2-5.7,1.5-11.6,6.8-13.9c2.3-1,3-2.3,3.4-4.6c7.7-43.2,40.2-76.8,83.2-86.1c53.8-11.6,107.5,19,124.7,71.3
	c0.3,1,0.5,2.1,0.9,3.2c0.8,1.8,0,3.2-1.6,3.5c-0.9,0.2-2.7-0.9-3.1-1.8c-1.6-3.7-2.6-7.7-4.3-11.5C196.4,35.7,172.6,15.5,139,7.7
	C91.7-3.4,42.8,21,22.8,65.6C19.1,73.9,16.5,82.6,15.1,91.9z"/>
<path d="M49.4,151.8c-1.5,0.1-2.5,0.2-3.6,0.3c-1.4-7.9-2.7-15.6-4.1-23.2c0.3-0.3,0.5-0.5,0.6-0.5c5.7-1.3,5.7-1.3,8.4,4.1
	c1.9,3.9,3.8,7.8,6.1,12.3c0.4-1.2,0.7-1.8,0.8-2.4c0.5-4.6,1-9.1,1.3-13.7c0.1-2.5,1-3.9,3.6-4c1,0,1.9-0.3,3.4-0.6
	c1.4,8,2.8,15.8,4.2,23.7c-2.4,1-3.7,1-4.1-1.9c-0.8-5.5-2-10.9-3.6-16.5c-0.2,1-0.5,2.1-0.7,3.1c-0.6,4.7-1.3,9.5-1.6,14.3
	c-0.2,2-1.4,2.4-2.7,2.4c-0.8,0-1.9-0.8-2.3-1.5c-2.4-4.5-4.7-9-7-13.6c-0.3-0.7-0.8-1.3-1.9-1.8C47.2,138.8,48.3,145.1,49.4,151.8z
	"/>
<path d="M65.3,104.8c0.3-3.9,0.6-7.8,0.8-11.7c0.1-2.3,0.2-4.6,0.2-6.9s0.9-3.4,3.7-2.7c0,1.6,0.1,3.4,0,5.1
	c-0.3,5.5-0.9,10.9-0.9,16.4c0,3-0.7,4.8-4.1,4.6c-0.7,0-1.4,0.2-2.4,0.4c-2.1-6.7-4.2-13.4-6.3-20.1c-0.3,0-0.6,0-0.9,0
	c-0.1,1-0.3,1.9-0.3,2.9c-0.3,5.4-0.6,10.7-0.8,16.1c-0.1,2.2-0.9,3.4-3,2.8c0-5.4,0-10.8,0-16.1c0-2.1,0.5-4.2,0.4-6.3
	c-0.1-2.4,0.6-3.8,3.3-3.7c1,0,1.9-0.3,3.3-0.6c2,6.7,4.1,13.3,6.1,19.9C64.7,104.9,65,104.9,65.3,104.8z"/>
<path d="M182.4,103.6c3.8-0.6,7.3-1.2,10.7-1.7c2.3-0.3,4.5,0.1,5.7,2.4c1.3,2.4,2,4.8,0.2,7.3c-0.2,0.3-0.3,0.7-0.3,0.6
	c1.3,1.9,2.8,3.3,3.4,5c1.3,3.7-0.1,6.9-3.6,8c-3.8,1.2-7.7,1.7-11.8,2.5C185.3,119.5,183.9,111.8,182.4,103.6z M189.7,123.8
	c2.1-0.4,4-0.6,5.8-1c2.4-0.4,3.4-1.9,3-4.3s-1.9-3.4-4.2-3.2c-1.8,0.2-3.7,0.7-5.8,1.1C188.9,118.9,189.3,121.2,189.7,123.8z
	 M186.4,106.1c0.8,2.7,1.2,6.5,2.2,6.6c2.2,0.4,4.9-0.8,7.1-1.9c0.6-0.3,0.6-3.3-0.1-4.2C193.1,103.6,190.1,105.7,186.4,106.1z"/>
<path d="M112.4,48c3.4,2.1,4.7,4.8,4.2,7.9c-0.6,3.3-3,4.6-5.8,5.2c-2.6,0.6-5.3,1.1-7.9,1.4c-0.8,0.1-1.6-0.8-2.4-1.3
	c-0.1-0.1-0.1-0.4-0.1-0.6c-1.2-7.1-2.4-14.1-3.8-21.9c4.4-0.5,8.6-1.4,12.8-1.4c3.8,0,6,5.2,4.2,9.1
	C113.2,46.9,112.9,47.4,112.4,48z M103.8,59.1c2.4-0.4,4.5-0.7,6.4-1.2c2-0.5,2.9-2,2.5-4.1c-0.4-1.9-1.6-3.3-3.7-3.1
	s-4.2,0.7-6.5,1.1C103,54.3,103.4,56.4,103.8,59.1z M100.8,41.4c0.4,2.5,0.8,4.7,1.3,7.2c2.1-0.4,4-0.6,5.8-1c2.1-0.5,2.8-2,2.5-4.1
	s-1.5-3.2-3.7-3C104.8,40.7,102.9,41,100.8,41.4z"/>
<path d="M137.1,140c-1.8,2.2-3.3,2.4-4.7,0.2c-1.2-1.9-2.7-2.4-5.1-1.8c-4.2,1.1-8.2-0.7-9.4-4.8c-1.2-4.1-1.9-8.5-2-12.9
	c-0.1-4.1,3.1-6.4,8.4-7.4c4.2-0.7,7.8,0.9,9.3,4.8c2.2,5.5,3.9,11.2,0.7,17c-0.3,0.5,0.1,1.4,0.4,2.1c0.2,0.5,0.8,0.9,1.1,1.4
	C136.3,139,136.6,139.5,137.1,140z M132.2,128.2c-0.3-1.7-0.5-3.4-0.8-5c-0.2-1-0.5-1.9-0.9-2.8c-1.3-3.1-3.3-4.2-6.3-3.7
	s-4.9,2.4-4.7,5.6c0.2,3.3,0.9,6.7,1.8,9.9c0.7,2.5,2.9,3.4,5.5,3.1C130.9,134.9,132.3,132.9,132.2,128.2z"/>
<path d="M99.5,134.4c0.3,1.9,0.6,3.7,1,5.4c0.6,2.4,0.1,3.8-3.2,3.1c-1.3-7.6-2.7-15.4-4.2-23.5c4.1-0.6,7.8-1.4,11.5-1.8
	c2.5-0.3,4.8,0.8,5.9,3.2c1.4,3,2,6.3-0.1,9.1c-1.2,1.6-1.2,2.6-0.1,4.1c1.3,1.8,2.5,3.8,3.8,5.9c-2.4,1.4-4.1,1.2-5.2-1.2
	c-0.3-0.6-0.7-1.2-1.1-1.8C105.1,132.5,105,132.5,99.5,134.4z M97.4,121.9c0.3,1.9,0.6,3.6,0.9,5.4c0.6,3.7,0.7,3.8,4.4,3
	c0.5-0.1,1-0.2,1.5-0.3c3.2-0.7,4.4-2.6,3.7-5.6c-0.6-2.9-2.4-4-5.5-3.5C100.7,121.2,99.2,121.6,97.4,121.9z"/>
<path d="M7.9,159c-1.3,0.3-2.2,0.6-3.5,0.9c-0.8-4.4-1.7-8.6-2.4-12.8c-0.5-3-0.9-6.1-1.6-9.1c-0.4-1.7,0-2.4,1.7-2.6
	c2.8-0.3,5.5-0.9,8.3-1.3c2.8-0.3,5.5,0.2,6.9,3c1.6,3.1,2.2,6.4,0,9.3c-1.3,1.6-1.1,2.7,0,4.1c1.3,1.8,2.5,3.8,3.8,5.8
	c-2.3,1.6-3.9,1.4-5.1-1.1c-0.5-1.1-1.3-2-1.9-3c-1.6-2.6-3.8-3.2-6.5-1.8c-0.5,0.3-0.8,1.4-0.8,2.2c0,1.1,0.3,2.2,0.5,3.2
	C7.5,156.7,7.7,157.6,7.9,159z M5.9,147.5c3.5-1.3,7.8,0,8.8-4.3c0.4-1.5-0.4-4.1-1.5-5.1c-2.7-2.3-5.7-0.3-8.9,0.1
	C4.9,141.5,5.4,144.3,5.9,147.5z"/>
<path d="M122.6,74c1.3,7.5,2.5,14.9,3.8,22.2c0.5,2.6-0.7,3.2-2.9,3c-0.2-0.2-0.3-0.3-0.4-0.5c-0.6-1.4-1.1-4-1.7-4.1
	c-2.4-0.1-4.9,0.4-7.3,1.1c-0.7,0.2-1.2,1.9-1.4,3c-0.5,2.4-1.7,3.5-4.4,2.8c1.8-6.8,3.7-13.6,5.5-20.3c0.1-0.3,0.2-0.6,0.3-0.8
	C115.8,74.4,115.8,74.4,122.6,74z M114.4,92c2.7-0.5,4.7-0.8,7.1-1.2c-0.7-4.5-1.4-8.7-2.1-12.9c-0.4,0-0.7-0.1-1.1-0.1
	C117,82.4,115.8,86.9,114.4,92z"/>
<path d="M93.4,143.8c-2.7,1.3-4.1,0.5-4.8-1.9c-0.5-1.9-1.8-2.1-3.5-1.8c-1.1,0.2-2.2,0.4-3.2,0.5c-2.6,0.3-4.4,1.1-4.1,4.4
	c0.2,2.4-1.7,2.2-3.7,2c0.1-1.7,0.2-3.4,0.4-5c0.4-5.8,0.9-11.5,1.1-17.3c0.1-1.9,0.9-2.5,2.6-2.8c5.1-0.9,5.1-1,7.1,3.7
	C88,131.6,90.6,137.6,93.4,143.8z M86.2,136.5c-1.7-3.8-3.1-7.3-4.7-10.7c-0.2-0.5-1-0.9-1.6-0.9c-0.3,0-0.9,0.8-0.9,1.2
	c-0.3,3.8-0.6,7.7-0.8,11.9C81.1,137.5,83.5,137.1,86.2,136.5z"/>
<path d="M182.7,128c-2.4,1.2-3.9,0.9-4.6-1.5c-0.5-2-1.7-2.7-3.7-2c-1.1,0.4-2.3,0.5-3.5,0.6c-2.4,0.2-4,1-3.7,3.8
	c0.3,2.5-1.3,2.7-3.7,2.5c0.5-8.1,1-16.2,1.5-24c0.3-0.3,0.4-0.5,0.4-0.5c6.9-2.2,6.9-2.2,9.8,4.4
	C177.7,116.7,180.2,122.3,182.7,128z M175.6,120.8c-1.7-3.9-3.2-7.5-4.8-11c-0.2-0.4-1-0.8-1.4-0.7c-0.4,0.1-1,0.8-1,1.2
	c-0.3,3.8-0.6,7.6-0.9,12C170.5,121.8,172.8,121.3,175.6,120.8z"/>
<path d="M96.7,63.2c-2.5,1.4-3.9,0.9-4.5-1.3c-0.6-2.1-1.8-2.9-4-2.1c-0.9,0.3-2,0.5-2.9,0.5c-2.7,0-4.3,1-4.1,4
	c0.2,2.4-1.5,2.6-3.7,2.4c0.2-2.7,0.4-5.2,0.6-7.8c0.3-4.9,0.7-9.7,1-14.6c0.2-3.8,3.4-2.5,5.4-3.3c1.7-0.7,2.7,0.2,3.4,1.8
	C90.6,49.6,93.7,56.3,96.7,63.2z M89.7,56.1c-1.7-3.9-3.3-7.5-4.9-11.1c-0.2-0.3-0.9-0.8-1.1-0.7c-0.5,0.2-1.1,0.7-1.1,1.1
	c-0.4,3.9-0.6,7.8-0.9,12.2C84.5,57.1,86.8,56.6,89.7,56.1z"/>
<path d="M138.1,111.5c1.4-0.3,2.4-0.5,3.7-0.7c0.9,5.3,1.8,10.5,2.8,15.6c0.7,3.9,2.6,5.3,6.2,4.7c3.1-0.6,4.6-2.2,4.2-5.4
	c-0.6-4.4-1.5-8.8-2.2-13.2c-0.2-1.1-0.2-2.1-0.4-3.4c1.2-0.2,2.1-0.4,3.5-0.6c1,6.4,2.2,12.5,2.9,18.7c0.4,2.8-1.3,5-4,6.1
	c-1.9,0.7-4,1.2-6.1,1.3c-3.9,0.2-6.4-1.5-7.2-5.3C140.2,123.5,139.2,117.7,138.1,111.5z"/>
<path d="M180.7,74.4c2.6-0.4,5-0.7,7.6-1.1c0.8,2.3,0.2,3.5-2.2,3.7c-0.2,0-0.4,0-0.6,0.1c-5.8,1-6.6,2.3-5.3,8.8
	c1.5-0.2,3.1-0.5,4.6-0.7c1.6-0.2,3.1-0.5,4.8-0.7c0.8,2.2,0.4,3.3-2,3.6c-3.8,0.5-7.6,1.3-11.9,2.1c0.3-5.6,0.6-10.9,0.9-16.1
	c0.1-1.4,0.2-2.8,0.3-4.2c0.2-5.8,0.2-5.8,5.8-6.7c2.7-0.5,5.4-0.9,8.2-1.3c0.8,2.3,0.4,3.5-2,3.7c-0.7,0-1.4,0.2-2.1,0.3
	C180.1,66.7,179.8,67.1,180.7,74.4z"/>
<path d="M137.2,56.5c-5,0.9-9.6,1.7-14.7,2.6c-1.4-7.9-2.8-15.7-4.2-23.9c5.1-0.9,9.9-1.8,15.1-2.7c0.1,1.1,0.2,2.1,0.3,3.1
	c-3.7,0.7-7.2,1.4-10.7,2c-0.6,6.9-0.2,7,9.7,5.7c0.3,0.7,0.6,1.5,0.9,2.2c-0.2,0.2-0.2,0.4-0.3,0.4c-2.9,0.7-5.7,1.4-8.8,2.2
	c0.3,1.9,0.4,3.8,0.9,5.6c0.2,0.6,1.6,1.2,2.4,1.1c2.9-0.3,5.9-0.9,9.1-1.5C137,54.5,137.1,55.4,137.2,56.5z"/>
<path d="M226.6,106.4c3.1-0.5,5.9-0.9,9-1.4c0.2,0.9,0.4,1.8,0.6,2.9c-3.1,0.6-5.9,1.2-9.1,1.8c0.5,2.4,0.9,4.7,1.3,7.2
	c3.8-0.6,7.3-1.2,11-1.8c0.3,1,0.5,1.8,0.8,3c-5.1,0.9-9.9,1.8-15,2.7c-1.4-8.1-2.8-15.9-4.2-23.9c5.1-0.9,9.7-1.8,14.7-2.6
	c0.3,1,0.5,1.9,0.8,3c-2.7,0.5-5.1,1.1-7.6,1.3c-2.9,0.2-4.2,1.4-3.2,4.4C226.1,103.9,226.3,105,226.6,106.4z"/>
<path d="M22.1,131.9c5.2-0.9,9.8-1.8,14.6-2.6c1.2,2.1,0.9,3.2-1.5,3.5c-2.3,0.3-4.5,0.8-6.8,1.2c-1.7,0.2-2,1.1-1.8,2.7
	c0.7,4.7,0.7,4.8,5.5,4.1c1-0.1,2-0.5,2.9-0.4c0.8,0.1,1.4,0.8,2.1,1.3c-0.5,0.6-1,1.4-1.6,1.6c-1.2,0.5-2.5,0.6-3.8,0.8
	c-1.1,0.2-2.3,0.4-3.6,0.7c0.5,2.5,0.9,4.7,1.3,7.2c3.1-0.5,5.9-1,8.7-1.5c2-0.4,3.1,0.1,2.8,2.8c-4.7,0.8-9.5,1.7-14.7,2.6
	C24.8,147.8,23.5,140.1,22.1,131.9z"/>
<path d="M163,89c0.4-1,1-1.9,1.3-2.9c1.6-6.1,3.3-12.1,4.6-18.2c0.5-2.5,1.7-3,4.3-2.7c-1.1,4.1-2.1,8-3.1,11.9
	c-0.9,3.6-2.2,7.1-2.7,10.7c-0.5,3.4-2.3,4.8-5.5,4.9c-0.9,0-1.7,0.1-3,0.2c-1.4-8.2-2.8-16.3-4.2-24.7c1.4-0.2,2.4-0.3,3.7-0.5
	c1.2,7.2,2.3,14.2,3.4,21.2C162.3,88.9,162.6,88.9,163,89z"/>
<path d="M83,83.9c-0.6-2.4,0-3.3,2.3-3.6c4.3-0.5,8.6-1.4,13-2.2c1,2.7-0.4,3.7-2.5,3.8c-2.9,0.1-3.6,1.5-3.6,4.1
	c-0.1,5.5-0.6,10.9-0.8,16.4c-0.1,2.3-0.9,3.3-3.3,2.8c0-7.2,0-14.4,0-21.8C86.4,83.5,84.8,83.7,83,83.9z"/>
<path d="M143.6,70c0.8,2.6,0,3.6-2.1,3.7c-2.8,0.1-3.8,1.3-3.8,4.3c0,5.5-0.7,10.9-0.9,16.4c-0.1,2.3-0.9,3.3-3.8,2.8
	c0.3-7.1,0.7-14.3,1-21.8c-2.1,0.2-3.8,0.3-6.6,0.6c0.9-1.5,1.4-3.1,2.1-3.3C134.1,71.6,138.8,70.9,143.6,70z"/>
<path d="M145.2,51.6c3.3-0.5,6.3-0.9,9.4-1.4c0.8,1.6,1.3,2.9-0.9,3.3c-3.7,0.7-7.4,1.3-11.5,2c-1.4-8-2.8-15.9-4.2-23.7
	c2.7-1.3,3.7-0.6,4.1,2C143,39.7,144.1,45.6,145.2,51.6z"/>
<path d="M211.5,119.9c2.7-0.5,5-0.9,7.3-1.3c2-0.4,2.8,0.4,2.6,2.8c-4.1,0.7-8.4,1.5-13,2.4c-1.4-8.1-2.8-15.8-4.2-23.9
	c1.3-0.2,2.3-0.4,3.5-0.6C209,106.2,210.2,112.9,211.5,119.9z"/>
<path d="M75.1,64.2c0.9,2,0.8,3.2-1.7,3.5c-3.5,0.5-7,1.2-10.8,1.8c-1.4-8.1-2.8-15.8-4.2-23.8c1.2-0.3,2.2-0.5,3.5-0.8
	c1.3,7,2.5,13.7,3.7,20.6C69,65.1,72,64.7,75.1,64.2z"/>
<path d="M146.1,94.9c0.4-8,0.8-15.8,1.2-23.7c0.1-2.4,1.7-2.2,3.5-2.1c0,2.8,0.1,5.6,0,8.3c-0.2,4.9-0.7,9.7-0.8,14.6
	C149.9,94.6,148.9,95.5,146.1,94.9z"/>
<path d="M104.5,102.7c-1.5,0.2-2.5,0.3-3.8,0.4c0.4-8.6,0.9-17,1.3-25.6c1.1-0.3,2.1-0.5,3.7-0.8C105.3,85.5,104.9,94,104.5,102.7z"
	/>
<path d="M74.3,107.4c0.5-8.1,0.8-16,1.4-24c0.1-0.8,1.6-1.6,2.4-2.4c0.3,0.2,0.6,0.4,0.8,0.6c0,2.6,0.1,5.3,0,7.9
	c-0.2,5.1-0.6,10.2-0.8,15.2C78.2,107.2,77.1,108.1,74.3,107.4z"/>
<path d="M41.4,113.4c0-1.1,0-2.2,0-3.3c0.3-6.6,0.8-13.3,1-19.9c0.1-2.4,1.2-3.2,3.7-2.5c0,1.6,0.1,3.3,0,5c-0.3,6-0.8,12.1-1,18.1
	C45,113.4,43.8,113.8,41.4,113.4z"/>
</svg>
