<svg width="306" height="190" viewBox="0 0 306 190" fill="none" xmlns="http://www.w3.org/2000/svg">
<g clip-path="url(#clip0_21_334)">
<path d="M306 190C203.98 190 102.02 190 0 190C0 126.667 0 63.3333 0 0C102.02 0 203.98 0 306 0C306 63.3333 306 126.667 306 190ZM73.0728 144.697C74.052 144.697 74.358 144.126 73.9908 143.099C73.3788 141.502 72.7668 139.961 72.0936 138.363C71.3592 136.652 71.5428 135.625 73.0116 134.312C74.8476 132.658 76.7448 131.06 78.5808 129.405C80.3556 127.808 82.1304 126.21 84.0276 124.67C86.9652 122.33 90.0252 120.048 93.0852 117.823C95.778 115.883 98.532 113.943 101.286 112.117C104.774 109.835 108.263 107.724 111.812 105.498C113.893 104.243 115.913 102.931 117.994 101.733C121.421 99.7928 124.909 97.8529 128.459 96.1411C133.294 93.8589 138.128 91.6336 143.086 89.6937C148.043 87.6967 153.122 85.8709 158.263 84.2162C163.649 82.4475 169.157 80.964 174.665 79.3664C176.317 78.9099 178.031 78.5105 179.683 78.0541C179.989 77.9399 180.295 77.6547 180.601 77.4264C180.295 77.3123 179.928 77.0841 179.622 77.1411C178.826 77.1982 178.031 77.3694 177.235 77.5405C173.502 78.3964 169.708 79.2523 165.974 80.1652C163.771 80.7357 161.629 81.4775 159.426 82.1051C157.284 82.7327 155.081 83.3033 153 83.988C150.736 84.7297 148.532 85.4715 146.329 86.2703C141.433 88.1532 136.476 89.9219 131.702 91.976C126.011 94.4294 120.564 97.1682 115.178 100.192C112.424 101.733 109.609 103.33 106.916 104.871C103.734 106.697 100.49 108.523 97.308 110.462C93.6972 112.688 90.1476 114.97 86.598 117.309C84.456 118.736 82.3752 120.276 80.2944 121.76C78.1524 123.3 76.0716 124.955 73.9296 126.495C72.7668 127.294 71.604 128.093 70.3188 128.721C69.156 129.291 68.6052 128.949 68.1768 127.808C67.5036 126.039 66.8304 124.27 66.1572 122.502C66.0348 122.216 65.6064 121.817 65.2392 121.817C64.9944 121.817 64.6272 122.273 64.5048 122.559C64.3212 123.015 64.3212 123.529 64.1376 123.985C63.8316 125.069 63.4644 126.153 63.0972 127.237C62.6076 128.664 62.1792 130.147 61.6896 131.574C61.2 133.171 59.9148 134.141 58.5072 135.054C56.2428 136.538 53.856 137.907 51.5304 139.333C50.8572 139.733 50.796 140.018 51.408 140.532C51.5916 140.703 51.8364 140.76 52.0812 140.817C53.4888 141.045 54.9576 141.273 56.3652 141.559C57.4056 141.73 57.9564 142.3 57.834 142.985C57.528 144.411 57.222 145.838 56.7936 147.264C56.4264 148.577 55.8756 149.832 55.4472 151.144C55.386 151.315 55.386 151.544 55.5084 151.658C55.6308 151.772 55.9368 151.772 56.0592 151.658C56.304 151.544 56.5488 151.372 56.7324 151.201C58.6296 149.432 60.4656 147.607 62.3628 145.838C63.1584 145.096 63.954 144.354 64.7496 143.67C65.0556 143.441 65.484 143.213 65.8512 143.27C67.0752 143.441 68.238 143.727 69.462 143.898C70.6248 144.297 71.8488 144.468 73.0728 144.697ZM121.666 143.784C122.216 143.099 122.033 142.471 121.91 141.844C121.543 140.075 121.115 138.306 120.686 136.538C120.319 135.054 120.748 133.97 121.849 133.285C122.951 132.601 124.114 131.916 125.215 131.231C126.072 130.718 126.929 130.261 127.724 129.748C127.908 129.634 128.03 129.405 128.214 129.234C127.969 129.12 127.786 128.835 127.541 128.835C126.5 128.664 125.46 128.492 124.42 128.492C123.073 128.435 121.788 128.55 120.442 128.492C119.095 128.492 118.361 127.922 118.116 126.952C117.626 125.183 117.137 123.357 116.647 121.589C116.586 121.303 116.464 121.075 116.28 120.79C116.096 120.447 115.79 120.447 115.607 120.79C115.362 121.189 115.178 121.589 114.995 121.988C114.138 123.814 113.342 125.64 112.363 127.465C112.057 128.036 111.323 128.721 110.711 128.835C108.936 129.177 107.161 129.291 105.325 129.462C104.407 129.577 103.428 129.634 102.51 129.805C101.837 129.919 101.714 130.318 102.265 130.718C102.694 131.06 103.183 131.345 103.673 131.574C105.08 132.429 106.488 133.228 107.896 134.141C108.63 134.598 108.997 135.282 108.752 136.138C108.569 136.823 108.202 137.393 107.957 138.078C107.161 139.904 106.366 141.673 105.631 143.499C105.509 143.727 105.631 144.069 105.631 144.354C105.937 144.297 106.304 144.297 106.488 144.126C108.446 142.7 110.405 141.33 112.302 139.847C113.648 138.82 114.566 138.706 115.913 139.676C117.443 140.703 118.912 141.901 120.38 142.985C120.87 143.27 121.237 143.499 121.666 143.784ZM76.3776 92.9459C74.1132 92.9459 72.0936 92.9459 70.1352 92.9459C69.9516 92.9459 69.5844 93.1171 69.5232 93.2312C69.462 93.4024 69.6456 93.6877 69.768 93.8589C69.8904 94.03 70.1352 94.0871 70.38 94.2012C71.9712 95 73.6236 95.7988 75.2148 96.6547C76.4388 97.3393 76.5 98.1952 75.7044 99.2222C75.5208 99.4505 75.276 99.6787 75.0924 99.8499C73.8684 101.276 72.5832 102.646 71.3592 104.072C71.1756 104.3 71.1756 104.586 71.1144 104.871C71.4204 104.871 71.7876 104.928 72.0324 104.814C74.4804 103.787 76.8672 102.76 79.3152 101.676C81.0288 100.934 82.5588 101.105 83.9052 102.417C84.9456 103.444 86.1084 104.357 87.2712 105.327C88.0056 105.955 88.5564 105.727 88.6176 104.814C88.74 103.159 88.74 101.447 88.74 99.7357C88.74 99.1081 88.9236 98.5375 89.4744 98.1952C89.964 97.8529 90.4536 97.5105 90.9432 97.3393C92.8404 96.6547 94.7988 96.027 96.696 95.3994C97.1244 95.2282 97.4916 95 97.8588 94.7718C97.4304 94.5435 96.9408 94.2012 96.4512 94.0871C95.5944 93.9159 94.6764 93.9159 93.8196 93.7447C92.3508 93.5165 90.882 93.2883 89.4744 93.003C88.8012 92.8318 88.1892 92.4895 88.128 91.7478C88.0056 91.006 87.8832 90.2643 87.7608 89.4655C87.6384 88.4384 87.516 87.4685 87.3324 86.4414C87.2712 86.2132 87.0264 85.8709 86.7816 85.8709C86.5368 85.8138 86.292 86.0991 86.0472 86.2703C85.9248 86.3844 85.8636 86.5556 85.7412 86.6697C84.456 88.3243 83.1708 89.979 81.8856 91.5766C81.5796 91.9189 81.0288 92.2613 80.5392 92.3754C79.0704 92.6607 77.6016 92.8318 76.3776 92.9459ZM111.874 75.2583C111.996 75.2012 112.057 75.1441 112.18 75.1441C112.057 74.7447 112.057 74.3453 111.874 74.003C111.078 72.5195 110.221 70.979 109.426 69.4955C108.936 68.5826 108.997 68.1832 109.915 67.5556C110.65 67.0991 111.384 66.6997 112.118 66.2432C113.465 65.3874 114.811 64.5315 116.158 63.6757C116.28 63.5616 116.341 63.3904 116.464 63.2192C116.28 63.1051 116.096 62.9339 115.913 62.9339C115.301 62.8769 114.75 62.9339 114.138 62.9339C111.996 63.0481 109.793 63.1622 107.651 63.3333C106.304 63.4474 105.509 62.8198 104.836 61.8499C104.652 61.5646 104.468 61.2793 104.285 60.994C103.55 59.8529 102.816 58.7117 102.02 57.6276C101.837 57.3994 101.347 57.0571 101.102 57.1141C100.858 57.1712 100.613 57.6276 100.49 57.9129C99.9396 59.3393 99.3276 60.7658 98.838 62.1922C98.532 63.1622 97.7976 63.6186 96.8184 63.8468C96.5736 63.9039 96.3288 63.961 96.084 64.018C93.7584 64.4174 91.4328 64.7598 89.1072 65.1592C88.1892 65.3303 87.2712 65.5586 86.2308 65.7297C86.7204 66.4144 87.3936 66.5285 88.0056 66.6997C89.7804 67.1562 91.6164 67.4985 93.3912 67.955C93.8808 68.0691 94.3704 68.2402 94.7988 68.4685C95.6556 68.8679 95.9004 69.3814 95.5332 70.2372C95.0436 71.4354 94.4316 72.5766 93.942 73.7748C93.636 74.4595 93.33 75.1441 93.024 75.8288C93.0852 75.8859 93.1464 76 93.2076 76.0571C93.7584 75.8859 94.3704 75.8288 94.86 75.6006C97.0632 74.4024 99.2052 73.1471 101.347 71.8919C102.204 71.3784 103.122 71.3213 104.04 71.7207C105.264 72.2913 106.488 72.8048 107.712 73.3183C109.12 73.9459 110.466 74.5736 111.874 75.2583ZM142.963 59.2252C143.024 59.1682 143.147 59.1111 143.208 59.0541C143.147 58.8829 143.147 58.7117 143.086 58.5405C142.106 56.5435 141.127 54.5465 140.209 52.6066C139.72 51.5225 140.026 50.7808 141.25 50.3814C141.984 50.0961 142.718 49.9249 143.514 49.6967C144.432 49.4114 145.289 49.1832 146.207 48.8408C146.452 48.7838 146.574 48.4985 146.758 48.3273C146.574 48.1562 146.39 47.9279 146.146 47.8709C144.738 47.4715 143.33 47.1291 141.923 46.7868C140.944 46.5586 139.964 46.2733 138.924 46.1592C137.333 45.988 136.17 45.3033 135.374 43.991C134.395 42.4505 133.477 40.8529 132.498 39.3123C132.253 38.9129 131.825 38.5706 131.519 38.2282C131.213 38.6276 130.846 39.027 130.662 39.4835C130.295 40.5676 129.989 41.6517 129.744 42.7928C129.438 44.1051 129.01 44.5045 127.602 44.4474C125.521 44.3333 123.44 44.1051 121.36 43.9339C120.319 43.8769 119.34 43.9339 118.3 43.9339C118.3 43.991 118.238 44.0481 118.238 44.1051C118.483 44.2192 118.667 44.3904 118.912 44.5045C121.36 45.8168 123.746 47.1291 126.194 48.4414C126.99 48.8979 127.541 49.4685 127.357 50.3814C127.051 51.7508 126.684 53.0631 126.378 54.3754C126.256 55.003 126.133 55.5736 126.011 56.3724C126.623 56.2012 126.99 56.1441 127.357 56.03C129.01 55.3453 130.601 54.6036 132.253 53.8619C133.355 53.4054 134.456 53.2913 135.497 53.976C137.333 55.1742 139.108 56.3724 140.882 57.5706C141.556 58.1982 142.29 58.7688 142.963 59.2252ZM175.828 115.883C175.766 115.94 175.644 116.054 175.583 116.111C175.766 116.396 175.889 116.739 176.134 116.967C177.908 118.679 179.683 120.333 181.458 121.988C181.825 122.387 182.192 122.787 182.498 123.186C182.988 123.814 183.233 124.498 182.56 125.183C182.437 125.297 182.437 125.468 182.376 125.64C182.07 126.61 181.703 127.58 181.458 128.55C181.336 129.006 181.336 129.52 181.213 129.976C181.764 130.033 182.254 130.033 182.804 130.09C182.866 130.09 182.927 130.09 183.049 130.033C184.334 129.634 185.681 129.234 186.966 128.835C188.068 128.435 188.986 128.721 189.904 129.348C192.046 130.832 194.126 132.372 196.268 133.856C196.574 134.084 197.064 134.141 197.431 134.312C197.37 133.913 197.37 133.456 197.186 133.114C196.33 131.402 195.412 129.691 194.494 128.036C194.249 127.58 194.249 127.18 194.677 126.838C195.044 126.553 195.412 126.267 195.779 126.153C197.248 125.583 198.778 125.069 200.246 124.499C200.552 124.384 200.736 124.099 200.92 123.871C200.675 123.7 200.43 123.471 200.124 123.357C199.267 123.186 198.349 123.072 197.492 122.901C196.207 122.616 194.983 122.273 193.759 122.045C192.168 121.703 191.066 120.961 190.454 119.477C189.659 117.538 188.802 115.598 187.945 113.658C187.823 113.372 187.517 113.144 187.272 112.916C187.088 113.144 186.782 113.429 186.721 113.715C186.293 114.913 185.864 116.111 185.497 117.309C185.069 118.622 184.396 118.964 182.988 118.508C181.703 118.051 180.479 117.595 179.194 117.138C177.97 116.796 176.868 116.339 175.828 115.883ZM162.547 143.841C162.608 143.784 162.67 143.727 162.731 143.613C162.67 143.384 162.608 143.156 162.547 142.928C161.874 141.216 161.14 139.505 160.466 137.793C159.916 136.366 160.283 135.625 161.874 135.168C163.282 134.769 164.628 134.312 165.974 133.856C166.158 133.799 166.342 133.571 166.525 133.399C166.342 133.228 166.219 132.943 165.974 132.886C164.138 132.315 162.364 131.688 160.528 131.288C158.386 130.775 157.223 129.52 156.672 127.637C156.244 126.21 155.693 124.841 155.203 123.471C155.081 123.186 154.775 122.901 154.53 122.616C154.285 122.901 153.918 123.129 153.796 123.414C153.306 124.613 152.816 125.811 152.388 127.009C152.021 128.093 151.409 128.435 150.307 128.15C149.45 127.865 148.594 127.58 147.676 127.351C146.39 126.952 145.105 126.61 143.82 126.21C143.636 126.153 143.269 126.21 143.208 126.267C143.147 126.438 143.147 126.724 143.269 126.895C143.392 127.123 143.636 127.294 143.82 127.465C145.35 128.892 146.819 130.318 148.349 131.688C149.144 132.429 149.573 133.285 149.267 134.312C148.961 135.282 148.655 136.195 148.288 137.165C147.982 137.964 147.614 138.706 147.431 139.505C147.308 140.246 147.676 140.417 148.41 140.246C148.594 140.189 148.716 140.132 148.9 140.018C150.124 139.505 151.409 139.048 152.572 138.477C154.591 137.508 155.203 138.078 156.488 139.162C158.141 140.532 159.793 141.901 161.446 143.27C161.813 143.613 162.241 143.727 162.547 143.841ZM219.708 113.087C219.524 112.688 219.524 112.574 219.402 112.402C218.606 110.976 217.872 109.492 217.076 108.066C216.832 107.61 216.77 107.21 217.199 106.925C217.75 106.468 218.3 106.012 218.912 105.613C220.198 104.757 221.605 103.958 222.89 103.102C223.135 102.931 223.258 102.589 223.441 102.303C223.135 102.189 222.89 102.018 222.584 102.018C221.85 102.018 221.054 102.132 220.32 102.132C218.974 102.132 217.627 102.018 216.281 102.018C214.873 101.961 214.2 101.505 213.71 100.249C213.098 98.7087 212.486 97.1111 211.813 95.5706C211.752 95.3423 211.324 95.2282 211.018 95.1712C210.895 95.1712 210.65 95.3994 210.589 95.6276C210.038 97.1111 209.549 98.6517 208.998 100.135C208.57 101.219 207.958 101.505 206.734 101.276C205.326 100.991 203.918 100.706 202.511 100.42C201.776 100.249 201.103 100.135 200.369 99.964C200.063 100.477 200.43 100.763 200.736 100.991C202.327 102.303 203.918 103.616 205.571 104.928C206.428 105.613 206.672 106.354 206.305 107.324C205.938 108.18 205.632 109.036 205.326 109.892C205.142 110.462 205.142 111.033 205.02 111.775C205.51 111.661 205.754 111.604 205.938 111.489C207.346 110.919 208.692 110.348 210.038 109.778C211.018 109.378 211.997 109.264 212.976 109.778C214.751 110.748 216.526 111.718 218.362 112.631C218.668 112.916 219.096 112.973 219.708 113.087ZM179.194 58.7117C179.255 58.6547 179.316 58.5976 179.377 58.5976C179.316 58.3123 179.255 58.027 179.194 57.7417C178.949 56.9429 178.582 56.1441 178.337 55.2883C178.031 54.3754 177.725 53.4625 177.419 52.4925C177.113 51.4655 177.358 51.0661 178.398 50.6667C179.255 50.3243 180.112 50.039 180.968 49.7538C181.703 49.4685 182.437 49.1261 183.172 48.7838C183.355 48.7267 183.478 48.4414 183.478 48.2703C183.478 48.1562 183.172 48.042 182.988 47.985C180.968 47.4144 178.949 46.7868 176.929 46.3303C175.583 46.045 174.91 45.2462 174.481 44.1051C173.808 42.3363 173.196 40.5676 172.523 38.7988C172.462 38.5706 172.094 38.3423 171.85 38.3423C171.727 38.3423 171.421 38.6276 171.36 38.8559C170.809 40.3393 170.258 41.8799 169.646 43.3634C169.524 43.6486 169.218 43.9339 168.912 43.991C168.422 44.048 167.81 44.0481 167.321 43.8769C165.485 43.4204 163.71 42.9069 161.874 42.3934C161.568 42.3363 161.262 42.3363 160.956 42.2793C161.017 42.6216 161.078 42.7357 161.262 42.8499C162.914 44.2763 164.689 45.7027 166.28 47.2432C166.831 47.7568 167.382 48.5556 167.321 49.1832C167.137 50.3814 166.525 51.5796 166.158 52.7778C166.036 53.2342 165.974 53.6907 165.913 54.2042C166.464 54.2042 166.954 54.2613 167.504 54.2613C167.627 54.2613 167.749 54.2042 167.872 54.1471C168.728 53.8619 169.585 53.5766 170.381 53.3483C171.85 52.8919 173.012 53.1772 174.114 54.2613C175.399 55.5736 176.746 56.8288 178.153 58.0841C178.398 58.2553 178.826 58.4264 179.194 58.7117ZM223.135 86.4414C223.258 86.4985 223.319 86.4985 223.441 86.5556C223.686 86.3844 223.992 86.2703 224.176 86.0991C225.522 84.958 226.807 83.8739 228.092 82.7327C229.439 81.5916 230.846 81.3063 232.56 81.9339C233.723 82.3904 234.947 82.5616 236.171 82.7327C236.966 82.8468 237.089 82.6186 236.844 81.9339C236.416 80.7928 236.11 79.6517 235.498 78.6246C234.824 77.4264 235.253 76.5706 236.048 75.7718C236.293 75.4865 236.599 75.2583 236.844 75.03C238.313 73.6036 239.782 72.2342 241.25 70.8078C241.434 70.6366 241.556 70.4084 241.74 70.0661C241.373 70.1231 241.128 70.0661 241.006 70.1231C240.455 70.3514 239.904 70.5796 239.353 70.8078C237.762 71.3784 236.11 71.8348 234.518 72.4054C233.968 72.5766 233.478 72.4625 233.172 72.0631C232.927 71.7778 232.682 71.4354 232.56 71.0931C232.132 69.8949 231.764 68.6396 231.336 67.4414C231.214 67.2132 230.969 66.985 230.785 66.7568C230.54 66.985 230.173 67.1562 230.051 67.4414C229.378 69.2102 228.827 70.979 228.154 72.6907C227.786 73.7748 226.868 74.4595 225.767 74.7447C223.931 75.2012 222.034 75.4865 220.198 75.8288C219.953 75.8859 219.769 76.0571 219.586 76.1712C219.708 76.3423 219.83 76.5135 220.014 76.6276C221.299 77.3694 222.646 78.0541 223.992 78.7958C225.094 79.3664 225.4 80.1081 224.971 81.1922C224.482 82.3904 223.87 83.5886 223.441 84.7868C223.319 85.2432 223.258 85.8709 223.135 86.4414ZM221.605 48.7838C221.544 48.6697 221.483 48.5556 221.422 48.4414C220.871 48.4414 220.32 48.4414 219.769 48.4414C218.117 48.4985 216.526 48.5556 214.873 48.5556C213.71 48.5556 213.282 48.1562 212.915 47.1291C212.425 45.5886 211.874 44.1051 211.385 42.5646C211.262 42.2222 211.018 41.9369 210.773 41.5946C210.589 41.9369 210.283 42.2793 210.161 42.6216C209.61 44.3904 209.182 46.2162 208.631 47.985C208.508 48.3844 208.08 48.8408 207.713 49.012C206.428 49.6396 204.959 49.5826 203.551 49.4685C202.878 49.4114 202.266 49.3544 201.593 49.2973C201.409 49.2973 201.042 49.4685 201.042 49.5826C200.981 49.7538 201.164 49.982 201.287 50.2102C201.409 50.3243 201.593 50.4384 201.715 50.4955C203.123 51.5225 204.592 52.4925 205.877 53.5766C206.305 53.976 206.795 54.7177 206.672 55.1742C206.305 56.7147 205.693 58.1982 205.265 59.7387C205.204 60.024 205.265 60.3093 205.265 60.5946C205.571 60.5375 205.938 60.5946 206.183 60.4805C206.428 60.3664 206.672 60.1381 206.917 59.967C208.019 59.1682 209.12 58.3694 210.161 57.5135C210.956 56.8859 211.691 56.8859 212.548 57.3423C213.894 58.0841 215.302 58.8258 216.648 59.5105C216.954 59.6817 217.26 59.7387 217.872 59.9099C217.75 59.3393 217.688 58.997 217.566 58.7117C217.076 57.4565 216.526 56.2012 216.036 54.8889C215.485 53.4054 215.791 52.6637 217.199 51.7508C218.239 51.0661 219.341 50.3814 220.381 49.6967C220.871 49.5255 221.177 49.1261 221.605 48.7838ZM242.903 55.6306C242.964 55.6877 243.025 55.8018 243.148 55.8589C243.454 55.6877 243.821 55.5165 244.127 55.2883C245.657 54.033 247.248 52.8919 248.656 51.5225C249.941 50.3243 251.348 49.982 253.001 50.3243C254.041 50.4955 255.02 50.7237 256.061 50.7808C257.285 50.8949 257.53 50.5526 256.979 49.4685C256.612 48.7838 256.306 48.1562 255.877 47.5285C255.204 46.4444 255.571 45.6456 256.428 44.9039C257.897 43.6486 259.366 42.3934 260.834 41.1952C261.079 41.024 261.202 40.7958 261.385 40.5676C261.324 40.5105 261.324 40.4535 261.263 40.3964C261.018 40.3964 260.773 40.3964 260.528 40.4535C259.488 40.7387 258.448 41.024 257.407 41.3093C256.734 41.4805 256.061 41.5946 255.449 41.8799C254.347 42.3934 253.674 42.5075 253.001 40.9099C252.572 39.9399 252.389 38.9129 252.083 37.8859C251.96 37.6006 251.716 37.3724 251.532 37.0871C251.287 37.3153 250.92 37.4865 250.798 37.7147C250.186 39.1411 249.512 40.5676 249.023 42.0511C248.717 42.9069 248.227 43.5916 247.432 44.048C246.942 44.3333 246.391 44.5045 245.84 44.6757C244.678 45.018 243.515 45.3604 242.352 45.7027C241.495 45.9309 240.7 46.1592 239.659 46.4444C240.149 46.7868 240.394 47.1291 240.761 47.2432C241.985 47.6997 243.209 48.0991 244.494 48.4985C245.351 48.7838 245.657 49.012 245.351 49.8108C244.922 51.1802 244.31 52.4925 243.76 53.8048C243.576 54.4324 243.209 55.0601 242.903 55.6306Z" fill="black" stroke="#E0C5B0" stroke-miterlimit="10"/>
</g>
<defs>
<clipPath id="clip0_21_334">
<rect width="306" height="190" fill="white"/>
</clipPath>
</defs>
</svg>
