<svg width="110" height="110" viewBox="0 0 110 110" fill="none" xmlns="http://www.w3.org/2000/svg">
<path d="M98.2143 110H11.7857C5.27902 110 0 104.721 0 98.2143V11.7857C0 5.27902 5.27902 0 11.7857 0H98.2143C104.721 0 110 5.27902 110 11.7857V98.2143C110 104.721 104.721 110 98.2143 110ZM58.4621 35.8237L25.1429 69.1429L23.596 83.163C23.3996 85.029 24.971 86.625 26.8616 86.4286L40.8817 84.8817L74.2009 51.5625C74.7656 50.9978 74.7656 50.0647 74.2009 49.4754L60.5737 35.8482C59.9598 35.2589 59.0268 35.2589 58.4621 35.8237ZM84.7098 32.6808L77.3192 25.2902C75.0112 22.9821 71.279 22.9821 68.9955 25.2902L63.3237 30.9621C62.7589 31.5268 62.7589 32.4598 63.3237 33.0491L76.9509 46.6763C77.5156 47.2411 78.4487 47.2411 79.0379 46.6763L84.7098 41.0045C86.9933 38.721 86.9933 34.9888 84.7098 32.6808Z" fill="#F2F2F2"/>
</svg>
