<svg width="110" height="110" viewBox="0 0 110 110" fill="none" xmlns="http://www.w3.org/2000/svg">
<path d="M106.548 24.048L85.952 3.45199C83.7417 1.24173 80.744 1.63447e-05 77.6183 0H11.7857C5.27656 0 0 5.27656 0 11.7857V98.2143C0 104.723 5.27656 110 11.7857 110H98.2143C104.723 110 110 104.723 110 98.2143V32.3817C110 29.256 108.758 26.2582 106.548 24.048ZM55 94.2857C46.3213 94.2857 39.2857 87.2501 39.2857 78.5714C39.2857 69.8927 46.3213 62.8571 55 62.8571C63.6787 62.8571 70.7143 69.8927 70.7143 78.5714C70.7143 87.2501 63.6787 94.2857 55 94.2857ZM78.5714 19.5152V44.1964C78.5714 45.8236 77.2522 47.1429 75.625 47.1429H18.6607C17.0335 47.1429 15.7143 45.8236 15.7143 44.1964V18.6607C15.7143 17.0335 17.0335 15.7143 18.6607 15.7143H74.7705C75.5521 15.7143 76.3015 16.0246 76.8539 16.5773L77.7084 17.4318C77.982 17.7054 78.1991 18.0302 78.3472 18.3876C78.4953 18.7451 78.5715 19.1282 78.5714 19.5152Z" fill="#F2F2F2"/>
</svg>
